<svg width="630" height="622" viewBox="0 0 630 622" fill="none" xmlns="http://www.w3.org/2000/svg">
<path d="M88.176 417.537V461.626C88.176 485.561 105.212 509.496 139.269 527.752C207.382 564.277 317.836 564.277 385.949 527.752C420.006 509.496 437.042 485.561 437.042 461.626V417.537C437.042 393.602 420.006 369.667 385.949 351.412C317.836 314.886 207.382 314.886 139.269 351.412C105.212 369.667 88.176 393.602 88.176 417.537ZM420.162 417.537C420.162 436.691 405.014 455.353 377.509 470.102C347.088 486.416 306.276 495.399 262.609 495.399C218.927 495.399 178.131 486.416 147.709 470.102C120.205 455.353 105.056 436.691 105.056 417.537C105.056 398.384 120.205 379.722 147.709 364.973C178.131 348.659 218.942 339.676 262.609 339.676C306.291 339.676 347.088 348.659 377.509 364.973C405.014 379.722 420.162 398.384 420.162 417.537Z" fill="#2B52DC"/>
<path opacity="0.2" d="M88.176 417.537V461.626C88.176 485.561 105.212 509.496 139.269 527.752C207.382 564.277 317.836 564.277 385.949 527.752C420.006 509.496 437.042 485.561 437.042 461.626V417.537C437.042 393.602 420.006 369.667 385.949 351.412C317.836 314.886 207.382 314.886 139.269 351.412C105.212 369.667 88.176 393.602 88.176 417.537ZM420.162 417.537C420.162 436.691 405.014 455.353 377.509 470.102C347.088 486.416 306.276 495.399 262.609 495.399C218.927 495.399 178.131 486.416 147.709 470.102C120.205 455.353 105.056 436.691 105.056 417.537C105.056 398.384 120.205 379.722 147.709 364.973C178.131 348.659 218.942 339.676 262.609 339.676C306.291 339.676 347.088 348.659 377.509 364.973C405.014 379.722 420.162 398.384 420.162 417.537Z" fill="#2B52DC"/>
<path opacity="0.6" d="M436.855 465.74C434.14 480.895 426.948 492.327 397.993 513.321C357.025 543.022 253.342 555.149 193.139 536.691C136.383 519.29 118.286 485.285 118.286 461.93L118.426 448.209C109.658 438.516 105.041 428.085 105.041 417.523C105.041 406.685 109.892 396.007 119.081 386.097L119.284 366.784H116.024C97.4585 382.171 88.1604 399.847 88.1604 417.523V461.611C88.1604 485.546 105.197 509.481 139.253 527.737C207.366 564.262 317.821 564.262 385.934 527.737C418.056 510.539 435.014 488.285 436.855 465.74Z" fill="#2B52DC"/>
<path d="M385.949 351.412C317.836 314.886 207.382 314.886 139.269 351.412C71.1555 387.938 71.1555 447.152 139.269 483.678C207.382 520.203 317.836 520.203 385.949 483.678C454.078 447.152 454.078 387.938 385.949 351.412ZM377.525 470.102C347.103 486.416 306.292 495.399 262.625 495.399C218.958 495.399 178.146 486.416 147.724 470.102C120.22 455.353 105.072 436.692 105.072 417.538C105.072 398.384 120.22 379.723 147.724 364.973C178.146 348.659 218.958 339.676 262.625 339.676C306.307 339.676 347.103 348.659 377.525 364.973C405.029 379.723 420.178 398.384 420.178 417.538C420.178 436.692 405.029 455.353 377.525 470.102Z" fill="#BA68C8"/>
<path d="M385.949 351.412C317.836 314.886 207.382 314.886 139.269 351.412C71.1555 387.938 71.1555 447.152 139.269 483.678C207.382 520.203 317.836 520.203 385.949 483.678C454.078 447.152 454.078 387.938 385.949 351.412ZM377.525 470.102C347.103 486.416 306.292 495.399 262.625 495.399C218.958 495.399 178.146 486.416 147.724 470.102C120.22 455.353 105.072 436.692 105.072 417.538C105.072 398.384 120.22 379.723 147.724 364.973C178.146 348.659 218.958 339.676 262.625 339.676C306.307 339.676 347.103 348.659 377.525 364.973C405.029 379.723 420.178 398.384 420.178 417.538C420.178 436.692 405.029 455.353 377.525 470.102Z" fill="#2B52DC"/>
<g opacity="0.98">
<path opacity="0.98" d="M420.193 417.538C420.193 425.058 417.869 432.447 413.376 439.59C406.465 428.463 394.28 418.031 377.509 409.077C347.119 392.748 306.292 383.765 262.594 383.765C218.942 383.765 178.115 392.763 147.724 409.077C130.954 418.031 118.785 428.477 111.827 439.59C107.381 432.447 105.041 425.058 105.041 417.538C105.041 398.399 120.189 379.723 147.724 364.959C178.115 348.66 218.942 339.677 262.594 339.677C306.276 339.677 347.103 348.674 377.509 364.959C405.045 379.723 420.193 398.399 420.193 417.538Z" fill="#2B44D7"/>
<path opacity="0.3" d="M420.193 417.538C420.193 425.058 417.869 432.447 413.376 439.59C406.465 428.463 394.28 418.031 377.509 409.077C347.119 392.748 306.292 383.765 262.594 383.765C218.942 383.765 178.115 392.763 147.724 409.077C130.954 418.031 118.785 428.477 111.827 439.59C107.381 432.447 105.041 425.058 105.041 417.538C105.041 398.399 120.189 379.723 147.724 364.959C178.115 348.66 218.942 339.677 262.594 339.677C306.276 339.677 347.103 348.674 377.509 364.959C405.045 379.723 420.193 398.399 420.193 417.538Z" fill="#2B44D7"/>
<path opacity="0.6" d="M147.724 364.959C120.189 379.723 105.041 398.384 105.041 417.538C105.041 425.058 107.365 432.447 111.827 439.59C118.785 428.462 130.954 418.031 147.724 409.077C154.558 405.411 161.952 402.122 169.753 399.21C163.107 401.601 142.701 407.7 150.143 389.633C158.988 368.161 202.14 344.936 233.872 341.068L233.888 341.024C201.251 344.081 171.329 352.311 147.724 364.959Z" fill="#2B44D7"/>
</g>
<path d="M380.754 511.742C380.723 504.498 386.152 495.675 392.892 492.038C396.246 490.227 399.273 490.039 401.488 491.198L401.519 491.212L440.381 511.858C440.396 511.873 440.412 511.873 440.428 511.873H440.443C442.643 513.061 444.016 515.582 444.031 519.19C444.063 526.434 438.633 535.257 431.894 538.894C428.524 540.719 425.466 540.893 423.251 539.72L384.389 519.088C382.174 517.915 380.77 515.379 380.754 511.742Z" fill="#37474F"/>
<path d="M384.405 519.088C382.174 517.915 380.77 515.379 380.754 511.743C380.739 509.019 381.503 506.063 382.829 503.252L438.696 532.983C436.761 535.446 434.421 537.532 431.894 538.894C428.524 540.72 425.466 540.894 423.251 539.72L384.405 519.088Z" fill="#263238"/>
<path d="M572.754 570.566C572.723 570.551 572.707 570.537 572.692 570.537L449.039 512.017C449.039 512.017 449.039 512.017 449.024 512.017L448.852 511.93L448.837 511.945C445.966 510.511 442.081 510.757 437.775 513.09C429.008 517.827 421.941 529.317 421.987 538.734C422.003 543.457 423.813 546.761 426.714 548.297L542.988 617.813C547.527 620.464 552.894 622 558.666 622C574.954 622 588.152 609.743 588.152 594.617C588.152 584.243 581.927 575.202 572.754 570.566Z" fill="#455A64"/>
<path d="M426.715 548.297L542.988 617.813C547.527 620.464 552.894 622 558.666 622C574.314 622 587.076 610.685 588.043 596.384C585.812 605.367 569.805 613.032 549.961 602.716C530.008 592.357 456.621 549.282 423.204 531.418C422.409 533.895 421.972 536.373 421.987 538.734C422.019 543.458 423.813 546.761 426.715 548.297Z" fill="#37474F"/>
<path opacity="0.6" d="M426.714 548.297C423.813 546.761 422.019 543.457 421.987 538.734C421.941 529.317 429.023 517.827 437.775 513.09C442.066 510.757 445.966 510.511 448.837 511.945L459.788 517.103C456.84 515.625 452.846 515.886 448.446 518.276C439.46 523.145 432.206 534.924 432.253 544.573C432.268 549.412 434.047 552.875 437.011 554.454" fill="#2B44D7"/>
<path opacity="0.2" d="M437.027 554.455C434.063 552.89 432.284 549.427 432.268 544.573C432.253 542.139 432.705 539.575 433.532 537.025C429.804 534.967 426.324 533.084 423.22 531.418C422.83 532.649 422.518 533.895 422.315 535.127C422.206 535.735 422.128 536.344 422.081 536.952C422.034 537.561 422.003 538.155 422.003 538.734C422.019 543.458 423.828 546.761 426.73 548.297L437.027 554.455Z" fill="black"/>
<path d="M130.876 615.408L37.286 571.928L0 587.257L130.876 615.408Z" fill="#BA68C8"/>
<path d="M130.876 615.408L37.286 571.928L0 587.257L130.876 615.408Z" fill="#2B52DC"/>
<path d="M130.875 615.408L48.4249 564.221L63.1989 544.516L130.875 615.408Z" fill="#BA68C8"/>
<path d="M130.875 615.408L48.4249 564.221L63.1989 544.516L130.875 615.408Z" fill="#2B52DC"/>
<path d="M48.4249 564.22L49.985 577.825L130.875 615.408L48.4249 564.22Z" fill="#BA68C8"/>
<g opacity="0.98">
<path opacity="0.98" d="M48.4249 564.22L49.985 577.825L130.875 615.408L48.4249 564.22Z" fill="#2B44D7"/>
</g>
<g opacity="0.98">
<g opacity="0.98">
<g opacity="0.98">
<path opacity="0.98" d="M35.0862 561.613C35.3046 561.613 35.523 561.541 35.6946 561.381C36.0847 561.034 36.1159 560.44 35.7882 560.034C35.1798 559.31 34.587 558.6 33.9786 557.861C33.6509 557.455 33.0581 557.412 32.6681 557.745C32.2781 558.078 32.2313 558.687 32.5589 559.092C33.1517 559.831 33.7601 560.556 34.3686 561.28C34.5714 561.497 34.821 561.613 35.0862 561.613Z" fill="#2B44D7"/>
</g>
</g>
<g opacity="0.98">
<g opacity="0.98">
<path opacity="0.98" d="M26.8648 551.73C25.7572 550.223 24.6807 548.702 23.6354 547.166C23.339 546.731 23.4482 546.137 23.8539 545.833C24.2751 545.529 24.8523 545.63 25.1487 546.065C26.1784 547.586 27.2392 549.093 28.3469 550.585C28.6589 551.006 28.5809 551.6 28.1597 551.918C27.9881 552.049 27.8009 552.107 27.5981 552.107C27.3172 552.107 27.052 551.976 26.8648 551.73ZM18.612 539.284C17.6447 537.662 16.7243 536.039 15.835 534.402C15.5854 533.938 15.7414 533.359 16.1938 533.098C16.6307 532.837 17.2079 533.011 17.4575 533.46C18.3312 535.083 19.2516 536.676 20.2033 538.27C20.4685 538.719 20.3281 539.313 19.8912 539.589C19.7352 539.69 19.5636 539.734 19.4076 539.734C19.0956 539.734 18.7836 539.574 18.612 539.284ZM11.654 526.013C10.8739 524.303 10.1251 522.55 9.43867 520.826C9.23586 520.333 9.46987 519.783 9.9379 519.58C10.4059 519.377 10.952 519.609 11.1548 520.102C11.8412 521.797 12.5744 523.521 13.3389 525.202C13.5573 525.68 13.3545 526.245 12.8865 526.477C12.7617 526.534 12.6212 526.563 12.4964 526.563C12.1376 526.563 11.81 526.361 11.654 526.013ZM6.2561 511.973C5.67886 510.162 5.16404 508.337 4.69601 506.54C4.5556 506.033 4.85202 505.512 5.35125 505.367C5.85047 505.222 6.3497 505.526 6.49011 506.033C6.95813 507.801 7.47296 509.597 8.03459 511.365C8.1906 511.872 7.92539 512.408 7.44176 512.567C7.34816 512.596 7.25455 512.611 7.16095 512.611C6.73972 512.64 6.3809 512.379 6.2561 511.973ZM2.6679 497.34C2.34028 495.5 2.05947 493.616 1.82545 491.747C1.76305 491.226 2.12187 490.748 2.6211 490.675C3.12032 490.617 3.58835 490.98 3.65075 491.501C3.88477 493.341 4.14998 495.196 4.4776 497.007C4.5712 497.528 4.22799 498.021 3.72876 498.122C3.66635 498.137 3.61955 498.137 3.55715 498.137C3.13593 498.122 2.7459 497.804 2.6679 497.34ZM1.06101 482.33C0.998609 480.852 0.983008 479.374 0.967407 477.882V476.665C0.967407 476.143 1.38863 475.723 1.88786 475.723H1.90346C2.41829 475.738 2.82391 476.158 2.82391 476.694V477.882C2.82391 479.345 2.85511 480.809 2.91751 482.258C2.93311 482.779 2.54309 483.228 2.02826 483.257C2.01266 483.257 1.99706 483.257 1.99706 483.257C1.49784 483.257 1.09221 482.852 1.06101 482.33ZM2.30908 468.276C1.79425 468.233 1.41983 467.754 1.46663 467.233C1.63824 465.364 1.85666 463.48 2.12187 461.611C2.19987 461.09 2.6679 460.728 3.16713 460.8C3.66635 460.872 4.02517 461.365 3.94717 461.887C3.69756 463.727 3.47914 465.581 3.30753 467.421C3.26073 467.914 2.85511 468.291 2.38708 468.291C2.37148 468.291 2.34028 468.291 2.30908 468.276ZM4.4932 453.483C3.99397 453.367 3.68196 452.86 3.79116 452.339C4.19678 450.499 4.66481 448.659 5.17964 446.848C5.32004 446.34 5.83487 446.051 6.3341 446.196C6.83333 446.34 7.11414 446.876 6.95813 447.384C6.45891 449.151 5.99088 450.962 5.60086 452.759C5.50725 453.193 5.11723 453.498 4.69601 453.498C4.63361 453.512 4.5556 453.498 4.4932 453.483ZM8.70543 439.154C8.2218 438.951 8.00339 438.401 8.1906 437.908C8.87704 436.169 9.61028 434.416 10.3903 432.707C10.6087 432.229 11.1704 432.026 11.6228 432.243C12.0908 432.475 12.278 433.04 12.0596 433.518C11.2952 435.199 10.5619 436.908 9.90669 438.618C9.76629 438.995 9.40747 439.212 9.04865 439.212C8.92384 439.227 8.81464 439.212 8.70543 439.154ZM15.0238 425.694C14.587 425.419 14.4465 424.839 14.7118 424.39C15.6478 422.768 16.6463 421.159 17.6759 419.609C17.9723 419.174 18.5496 419.058 18.9708 419.363C19.392 419.667 19.5012 420.261 19.2204 420.696C18.2063 422.217 17.2391 423.796 16.303 425.375C16.1314 425.68 15.8194 425.839 15.5074 425.839C15.3358 425.825 15.1798 425.781 15.0238 425.694ZM23.3234 413.393C22.9334 413.06 22.871 412.452 23.1986 412.046C24.3687 410.597 25.6011 409.163 26.8492 407.786C27.208 407.395 27.7853 407.381 28.1597 407.743C28.5341 408.105 28.5497 408.714 28.2065 409.09C26.9896 410.438 25.7884 411.829 24.6339 413.263C24.4467 413.495 24.1815 413.611 23.9163 413.611C23.7134 413.625 23.495 413.553 23.3234 413.393ZM33.3392 402.556C32.996 402.165 33.0428 401.556 33.4172 401.209C34.7901 399.948 36.2097 398.731 37.6294 397.558C38.035 397.224 38.6123 397.297 38.9399 397.717C39.2519 398.137 39.1895 398.731 38.7839 399.064C37.3798 400.209 35.9913 401.411 34.6496 402.643C34.478 402.802 34.2596 402.889 34.0412 402.889C33.776 402.875 33.5264 402.759 33.3392 402.556ZM44.837 393.385C44.5562 392.936 44.681 392.356 45.1178 392.066C46.6935 391.023 48.2848 390.052 49.8605 389.169C50.3129 388.922 50.8745 389.082 51.1241 389.545C51.3738 390.009 51.2021 390.589 50.7497 390.849C49.2052 391.719 47.6452 392.675 46.1163 393.675C45.9603 393.776 45.7886 393.819 45.617 393.819C45.3206 393.819 45.0086 393.66 44.837 393.385Z" fill="#2B44D7"/>
</g>
</g>
<g opacity="0.98">
<g opacity="0.98">
<path opacity="0.98" d="M58.6436 387.128C58.7372 387.128 58.8308 387.113 58.9244 387.084C59.9073 386.751 60.7653 386.534 61.4673 386.432C61.9666 386.36 62.3254 385.867 62.2474 385.346C62.1694 384.824 61.6858 384.447 61.2021 384.534C60.4065 384.65 59.4392 384.896 58.3628 385.259C57.8791 385.418 57.6139 385.954 57.7699 386.461C57.8791 386.867 58.238 387.128 58.6436 387.128Z" fill="#2B44D7"/>
</g>
</g>
</g>
<path d="M496.7 53.818L400.755 26.5071L474.672 73.6673L496.7 53.818Z" fill="#BA68C8"/>
<path d="M496.7 53.818L400.755 26.5071L474.672 73.6673L496.7 53.818Z" fill="#2B52DC"/>
<path d="M400.755 26.5071L504.032 41.9374L526.061 22.0881L400.755 26.5071Z" fill="#BA68C8"/>
<path d="M400.755 26.5071L504.032 41.9374L526.061 22.0881L400.755 26.5071Z" fill="#2B52DC"/>
<path d="M504.032 41.9374L504.126 65.6406L496.7 53.818L400.755 26.5071L504.032 41.9374Z" fill="#BA68C8"/>
<path opacity="0.98" d="M504.032 41.9374L504.126 65.6406L496.7 53.818L400.755 26.5071L504.032 41.9374Z" fill="#2B44D7"/>
<path opacity="0.98" d="M504.126 65.6405L489.368 60.4246L496.7 53.8179L504.126 65.6405Z" fill="#2B44D7"/>
<path opacity="0.2" d="M496.7 53.8179L489.368 60.4246L491.723 61.265L496.7 53.8179Z" fill="black"/>
<path d="M523.486 49.6457C523.315 49.7616 523.19 49.95 523.159 50.1673C523.081 50.6599 523.44 51.167 523.97 51.2974C524.922 51.5292 525.873 51.761 526.825 52.0073C527.355 52.1377 527.855 51.848 527.933 51.3699C528.026 50.8772 527.668 50.3701 527.137 50.2397C526.185 49.9934 525.218 49.7616 524.266 49.5153C523.97 49.4429 523.689 49.5008 523.486 49.6457Z" fill="#2B52DC"/>
<path d="M536.466 52.8769C538.339 53.4564 540.179 54.0649 542.02 54.6879C542.535 54.8618 542.847 55.3979 542.707 55.876C542.582 56.3541 542.036 56.5859 541.521 56.4121C539.711 55.7891 537.886 55.1805 536.03 54.6155C535.515 54.4561 535.187 53.9345 535.296 53.4564C535.343 53.2536 535.452 53.0942 535.608 52.9928C535.858 52.8334 536.17 52.7755 536.466 52.8769ZM551.162 58.1217C552.988 58.8606 554.782 59.643 556.56 60.4399C557.06 60.6572 557.309 61.2223 557.122 61.6714C556.935 62.135 556.373 62.3089 555.874 62.0916C554.127 61.2947 552.348 60.5268 550.554 59.8024C550.055 59.5996 549.774 59.049 549.946 58.5854C550.008 58.426 550.102 58.2956 550.242 58.1942C550.476 58.0348 550.819 57.9913 551.162 58.1217ZM565.359 64.772C567.107 65.6992 568.838 66.67 570.507 67.6407C570.976 67.916 571.163 68.4955 570.929 68.9157C570.679 69.3358 570.102 69.4662 569.634 69.191C567.98 68.2202 566.28 67.2785 564.564 66.3657C564.08 66.1049 563.862 65.5399 564.096 65.1052C564.158 64.9893 564.252 64.8879 564.345 64.8154C564.61 64.6126 565 64.5836 565.359 64.772ZM578.807 72.9C580.445 74.0156 582.052 75.1747 583.597 76.3338C584.033 76.667 584.143 77.2466 583.846 77.6378C583.55 78.029 582.941 78.0724 582.505 77.7392C580.991 76.5946 579.4 75.4645 577.793 74.3634C577.341 74.0591 577.2 73.4796 577.481 73.0739C577.543 73.0014 577.606 72.929 577.684 72.8711C577.98 72.6392 578.433 72.6537 578.807 72.9ZM591.21 82.5204C592.676 83.8099 594.127 85.1428 595.531 86.5048C595.921 86.8815 595.952 87.461 595.594 87.8087C595.25 88.142 594.626 88.113 594.236 87.7363C592.863 86.4033 591.428 85.0849 589.993 83.8244C589.587 83.4622 589.525 82.8826 589.868 82.5204C589.899 82.4769 589.946 82.448 589.993 82.419C590.321 82.1582 590.835 82.2017 591.21 82.5204ZM602.271 93.5607C603.285 94.7053 604.268 95.8644 605.235 97.0524L606.031 98.0231C606.374 98.4433 606.311 99.0084 605.906 99.2981C605.906 99.2981 605.906 99.2981 605.89 99.2981C605.485 99.5734 604.876 99.472 604.533 99.0373L603.769 98.0811C602.817 96.922 601.834 95.7774 600.851 94.6473C600.492 94.2416 600.524 93.6621 600.914 93.3578C600.929 93.3578 600.929 93.3433 600.945 93.3433C601.335 93.0681 601.928 93.1695 602.271 93.5607ZM610.446 105.441C610.882 105.195 611.491 105.354 611.787 105.803C612.864 107.383 613.925 109.02 614.939 110.643C615.22 111.092 615.079 111.657 614.627 111.874C614.174 112.106 613.581 111.918 613.301 111.454C612.302 109.846 611.257 108.238 610.196 106.687C609.915 106.267 609.993 105.746 610.368 105.485C610.399 105.47 610.43 105.456 610.446 105.441ZM618.371 118.437C618.839 118.249 619.432 118.481 619.666 118.959C620.539 120.654 621.366 122.378 622.146 124.103C622.365 124.581 622.146 125.102 621.663 125.262C621.179 125.421 620.602 125.16 620.383 124.668C619.635 122.972 618.808 121.277 617.95 119.626C617.747 119.22 617.84 118.771 618.184 118.524C618.246 118.495 618.308 118.466 618.371 118.437ZM624.362 132.202C624.876 132.086 625.407 132.404 625.578 132.897C626.171 134.665 626.733 136.476 627.217 138.272C627.357 138.779 627.029 139.243 626.53 139.33C626.015 139.417 625.485 139.069 625.344 138.562C624.861 136.794 624.315 135.027 623.738 133.288C623.613 132.912 623.738 132.535 624.034 132.332C624.143 132.274 624.252 132.231 624.362 132.202ZM628.121 146.473C628.652 146.444 629.135 146.821 629.229 147.342C629.541 149.153 629.791 150.993 629.994 152.819C630.056 153.326 629.666 153.746 629.135 153.746C628.605 153.746 628.137 153.34 628.075 152.833C627.887 151.051 627.638 149.255 627.341 147.473C627.279 147.139 627.419 146.835 627.669 146.661C627.778 146.545 627.95 146.487 628.121 146.473Z" fill="#2B52DC"/>
<path opacity="0.98" d="M507.386 121.697C495.639 115.38 479.476 116.234 461.645 125.797C425.732 145.052 396.605 192.256 396.605 231.215C396.605 250.818 404 264.568 415.903 270.958C418.649 272.435 429.46 278.158 429.444 278.216C428.259 285.721 424.889 293.632 414.296 299.456C413.61 299.833 414.046 300.442 414.639 300.775C414.889 300.905 430.521 309.294 431.129 309.613C431.379 309.743 431.644 309.83 431.878 309.83C448.103 309.859 466.918 299.703 472.144 278.607C474.11 277.753 476.091 276.796 478.104 275.724C514.017 256.469 543.143 209.265 543.143 170.306C543.143 150.703 535.764 136.924 523.861 130.52C521.099 129.028 510.132 123.174 507.386 121.697Z" fill="#2B44D7"/>
<path d="M478.119 134.635C442.206 153.89 413.079 201.094 413.079 240.054C413.079 266.481 426.496 282.317 446.325 283.766C445.591 292.169 442.939 301.615 430.771 308.295C429.803 308.816 431.067 309.83 431.878 309.83C448.103 309.859 466.918 299.703 472.144 278.608C474.11 277.753 476.091 276.797 478.104 275.724C514.017 256.469 543.143 209.266 543.143 170.306C543.143 131.346 514.032 115.365 478.119 134.635Z" fill="#2B52DC"/>
<path d="M430.771 308.28C430.178 308.613 430.443 309.12 430.927 309.482C428.976 308.454 414.873 300.905 414.655 300.76C414.046 300.427 413.625 299.819 414.312 299.442C424.92 293.632 428.274 285.707 429.46 278.202L431.27 279.187L432.908 280.085C436.917 282.157 441.426 283.374 446.325 283.736C445.591 292.154 442.924 301.601 430.771 308.28Z" fill="#2B52DC"/>
<path d="M471.255 246.138C469.507 244.993 468.649 242.936 468.649 239.966C468.649 236.996 469.507 234.055 471.208 231.142C472.908 228.23 475.093 226.057 477.745 224.637C480.397 223.217 482.581 223.043 484.282 224.13C485.982 225.216 486.84 227.245 486.84 230.215C486.84 233.185 485.966 236.184 484.235 239.183C482.503 242.183 480.335 244.385 477.745 245.776C475.155 247.152 472.986 247.283 471.255 246.138ZM468.93 167.378L486.575 157.917L483.626 213.148L471.879 219.45L468.93 167.378Z" fill="#FAFAFA"/>
<path opacity="0.2" d="M486.793 270.407C505.951 257.367 522.457 236.706 532.582 214.51C513.424 227.564 496.903 248.225 486.793 270.407Z" fill="black"/>
<path d="M609.276 345.907C602.645 345.965 597.7 341.662 594.595 336.229C614.502 313.496 627.965 283.215 627.965 256.73C627.965 237.083 620.555 223.305 608.62 216.915C605.859 215.438 594.923 209.584 592.161 208.106C580.414 201.804 564.283 202.673 546.451 212.236C510.538 231.491 481.411 278.695 481.411 317.654C481.411 337.257 488.79 351.036 500.694 357.425C503.471 358.918 514.407 364.742 517.121 366.22C528.869 372.58 545.062 371.74 562.925 362.149C567.59 359.656 572.13 356.672 576.514 353.311C588.604 362.192 603.332 352.514 609.166 347.877C609.931 347.269 610.024 345.907 609.276 345.907Z" fill="#E0E0E0"/>
<path d="M534.142 369.378C512.41 369.378 498.899 352.948 498.899 326.492C498.899 287.895 527.855 240.966 563.44 221.899C573.393 216.567 582.91 213.858 591.725 213.858C613.456 213.858 626.967 230.288 626.967 256.744C626.967 282.07 614.268 312.293 593.831 335.649L593.409 336.127L593.721 336.677C597.388 343.096 602.707 346.689 608.729 346.848C608.683 346.964 608.605 347.08 608.511 347.167C604.361 350.456 596.124 355.991 587.59 355.991C583.752 355.991 580.242 354.846 577.153 352.571L576.514 352.093L575.874 352.571C571.459 355.962 566.935 358.903 562.426 361.322C552.457 366.669 542.956 369.378 534.142 369.378Z" fill="#FAFAFA"/>
<path d="M591.709 212.902V214.785C612.817 214.785 625.937 230.868 625.937 256.744C625.937 281.853 613.332 311.859 593.035 335.055L592.193 336.025L592.817 337.127C596.186 343.038 600.945 346.674 606.389 347.587C602.052 350.789 594.892 355.063 587.575 355.063C583.971 355.063 580.664 353.977 577.762 351.847L576.483 350.905L575.219 351.876C570.835 355.237 566.358 358.149 561.911 360.526C552.114 365.77 542.769 368.436 534.142 368.436C513.034 368.436 499.914 352.354 499.914 326.477C499.914 288.184 528.635 241.618 563.94 222.696C573.737 217.451 583.082 214.785 591.709 214.785V212.902ZM591.709 212.902C583.035 212.902 573.253 215.524 562.925 221.073C527.012 240.329 497.885 287.532 497.885 326.492C497.885 354.238 512.659 370.32 534.142 370.32C542.816 370.32 552.598 367.697 562.925 362.148C567.59 359.656 572.13 356.672 576.514 353.31C580.071 355.918 583.862 356.932 587.575 356.932C596.499 356.932 605.048 351.151 609.166 347.877C609.946 347.254 610.04 345.907 609.307 345.907C609.26 345.907 609.213 345.907 609.166 345.907C602.598 345.907 597.715 341.618 594.626 336.228C614.533 313.496 627.997 283.215 627.997 256.73C627.965 228.984 613.191 212.902 591.709 212.902Z" fill="#2B52DC"/>
<g opacity="0.98">
<path opacity="0.98" d="M559.618 298.24C561.1 294.777 563.269 290.692 566.108 285.954C568.199 282.491 569.727 279.695 570.71 277.565C571.693 275.435 572.177 273.349 572.177 271.32C572.177 268.423 571.241 266.641 569.384 265.96C567.528 265.279 565.032 265.771 561.943 267.423C558.978 269.017 556.326 271.19 554.033 273.957C551.724 276.725 549.79 279.898 548.198 283.476L536.732 281.289C539.384 274.856 542.972 269.06 547.496 263.902C552.021 258.744 557.372 254.499 563.565 251.181C570.835 247.284 576.67 246.081 581.054 247.559C585.453 249.037 587.637 253.181 587.637 259.99C587.637 263.207 587.216 266.249 586.358 269.133C585.5 272.016 584.455 274.638 583.222 276.971C581.99 279.318 580.398 282.114 578.433 285.345C576.093 289.185 574.392 292.271 573.316 294.604C572.239 296.936 571.709 299.356 571.709 301.862L557.387 309.541C557.387 305.47 558.136 301.703 559.618 298.24ZM558.105 335.519C556.373 334.375 555.5 332.317 555.5 329.347C555.5 326.377 556.358 323.436 558.058 320.524C559.759 317.611 561.943 315.453 564.595 314.018C567.247 312.598 569.431 312.424 571.132 313.511C572.832 314.583 573.69 316.626 573.69 319.596C573.69 322.566 572.816 325.566 571.085 328.565C569.353 331.578 567.185 333.766 564.595 335.157C562.005 336.533 559.837 336.649 558.105 335.519Z" fill="#2B44D7"/>
</g>
<path d="M230.05 232.245L158.286 270.842L186.789 315.844C187.413 317.133 188.38 318.075 189.519 318.683C192.92 320.48 213.061 331.303 214.168 331.897C217.569 333.722 222.499 332.433 223.794 328.333L254.746 245.487L230.05 232.245Z" fill="#BA68C8"/>
<path opacity="0.98" d="M230.05 232.245L158.286 270.842L186.789 315.844C187.413 317.133 188.38 318.075 189.519 318.683C192.92 320.48 213.061 331.303 214.168 331.897C217.569 333.722 222.499 332.433 223.794 328.333L254.746 245.487L230.05 232.245Z" fill="#2B44D7"/>
<path d="M182.998 284.084L211.501 329.085C213.981 334.272 222.078 333.779 223.81 328.332L254.762 245.486L182.998 284.084Z" fill="#2B52DC"/>
<path d="M310.129 1.41299L39.5012 146.516C36.069 148.356 33.2921 152.833 33.2921 156.513V330.955C33.2921 334.635 36.0846 339.083 39.5324 340.894L61.7792 352.485C65.227 354.296 70.8121 354.267 74.2443 352.427L344.872 207.324C348.304 205.484 351.081 201.007 351.081 197.327V22.885C351.081 19.2049 348.289 14.7569 344.841 12.9459L322.579 1.35503C319.131 -0.456035 313.561 -0.427058 310.129 1.41299Z" fill="#BA68C8"/>
<path opacity="0.98" d="M351.003 21.8272C350.52 18.915 347.961 17.8863 344.857 19.538L74.2599 164.655C72.5438 165.582 70.9837 167.162 69.876 168.973L35.2422 150.616C36.3654 148.877 37.8475 147.385 39.5168 146.516L310.145 1.39834C313.561 -0.441706 319.131 -0.470683 322.594 1.34038L344.841 12.9167C347.961 14.5829 350.582 18.3934 351.003 21.8272Z" fill="#2B44D7"/>
<path d="M68.0351 349.746V175.304C68.0351 171.624 70.8121 167.147 74.2442 165.307L344.872 20.2187C348.304 18.3786 351.081 19.8709 351.081 23.551V197.993C351.081 201.673 348.304 206.15 344.872 207.99L74.2442 353.078C70.8121 354.918 68.0351 353.426 68.0351 349.746Z" fill="#2B52DC"/>
<path opacity="0.98" d="M74.2444 352.412C70.937 354.194 64.8995 354.252 61.7793 352.484L39.5325 340.879C36.0847 339.097 33.2766 334.649 33.2766 330.969V156.498C33.2766 154.586 34.0566 152.47 35.2579 150.616L69.8606 168.973C68.7061 170.755 68.0197 172.812 68.0197 174.652V349.08C68.0353 352.441 70.5938 354.382 74.2444 352.412Z" fill="#2B44D7"/>
<path d="M143.965 210.106L141.25 208.657C139.144 207.527 136.57 207.527 134.464 208.657L117.989 217.495V196.559L148.505 180.187C151.437 178.608 153.247 175.695 153.247 172.551V160.816C153.247 157.657 151.437 154.745 148.489 153.18C145.556 151.601 141.937 151.601 138.988 153.18L96.6629 175.884C91.5614 178.622 88.41 183.679 88.41 189.141V298.08C88.41 301.239 90.2197 304.151 93.1683 305.716C96.1013 307.295 99.7206 307.295 102.669 305.716L113.231 300.051C116.164 298.471 117.974 295.559 117.974 292.415V249.688L143.949 235.75C146.055 234.62 147.35 232.548 147.35 230.288V215.553C147.366 213.308 146.071 211.221 143.965 210.106Z" fill="#E0E0E0"/>
<path opacity="0.1" d="M103.59 305.208L102.685 305.701C101.218 306.498 99.5647 306.889 97.9266 306.889C96.2885 306.889 94.6504 306.498 93.1839 305.701C90.2354 304.136 88.4257 301.209 88.4257 298.065V189.126C88.4257 186.547 89.1433 184.084 90.407 181.896L99.9079 186.982C98.6286 189.169 97.9266 191.647 97.9266 194.211V302.137C97.9266 304.831 101.078 306.541 103.59 305.208Z" fill="black"/>
<path d="M117.989 196.545V227.666L143.918 213.757C145.447 212.931 147.35 213.96 147.35 215.597V230.303C147.35 232.549 146.055 234.621 143.98 235.736L117.989 249.674V292.415C117.989 295.559 116.18 298.472 113.247 300.036L103.636 305.194C101.093 306.556 97.9265 304.861 97.9265 302.137V194.227C97.9265 188.75 101.062 183.693 106.179 180.97L148.114 158.483C150.408 157.252 153.263 158.788 153.263 161.251V172.595C153.263 175.725 151.469 178.622 148.551 180.187L117.989 196.545Z" fill="#FAFAFA"/>
<path d="M208.552 130.738C207.741 128.173 205.9 125.986 203.404 124.653C201.657 123.725 199.722 123.262 197.788 123.262C195.853 123.262 193.919 123.725 192.171 124.653L181.672 130.289C178.942 131.752 176.992 134.215 176.321 137.084L145.026 269.422C144.479 271.74 145.618 274.102 147.818 275.29L150.689 276.826C152.498 277.796 154.729 277.796 156.539 276.826L169.191 270.045C170.829 269.161 172.218 267.785 173.341 265.916C174.464 264.061 175.244 262.221 175.666 260.41L180.751 236.272L206.337 222.552L208.989 232.36C209.551 233.867 210.346 234.91 211.407 235.49C212.468 236.069 219.847 239.996 220.908 240.59C221.969 241.169 223.373 240.996 225.105 240.068L240.55 231.781L208.552 130.738ZM187.756 202.934L193.248 176.681C193.357 176.232 193.466 175.768 193.575 175.29L199.379 196.69L187.756 202.934Z" fill="#E0E0E0"/>
<path opacity="0.1" d="M220.783 240.518C219.395 239.75 212.437 236.055 211.407 235.49C210.346 234.911 209.551 233.867 208.989 232.361L206.337 222.552L213.42 218.756L218.49 237.446C219.036 238.895 219.785 239.909 220.783 240.518Z" fill="black"/>
<path opacity="0.1" d="M208.88 201.79L199.379 196.69L193.575 175.29C193.575 175.29 193.575 175.29 193.575 175.276C193.575 175.247 193.591 175.218 193.591 175.189C194.09 173.102 194.589 170.726 195.136 168.089C195.806 164.801 196.43 161.294 197.023 157.542C197.694 160.555 198.365 163.337 199.036 165.873C199.707 168.408 200.331 170.581 200.923 172.407L208.88 201.79Z" fill="black"/>
<path opacity="0.1" d="M154.698 273.812C154.324 275.391 155.931 276.666 157.459 276.246L157.428 276.362L156.539 276.826C154.729 277.796 152.498 277.796 150.689 276.826L147.818 275.29C145.618 274.102 144.479 271.74 145.026 269.422L176.321 137.084C176.602 135.852 177.148 134.693 177.881 133.65L187.382 138.75C186.633 139.779 186.103 140.938 185.822 142.169L154.698 273.812Z" fill="black"/>
<path d="M240.55 231.781L225.089 240.068C223.357 240.996 221.969 241.17 220.908 240.59C219.847 240.01 219.036 238.967 218.49 237.46L213.42 218.756L180.736 236.272L175.666 260.41C175.229 262.221 174.464 264.047 173.341 265.916C172.218 267.785 170.829 269.161 169.176 270.045L157.99 276.043C156.305 276.942 154.277 275.565 154.698 273.798L185.822 142.155C186.493 139.286 188.443 136.823 191.173 135.36L201.267 129.956C204.34 128.304 208.256 129.767 209.254 132.926L240.55 231.781ZM208.88 201.79L200.923 172.407C200.331 170.596 199.707 168.408 199.036 165.873C198.365 163.337 197.694 160.555 197.023 157.542C196.43 161.294 195.806 164.8 195.136 168.089C194.465 171.378 193.841 174.247 193.248 176.696L185.338 214.409L208.88 201.79Z" fill="#FAFAFA"/>
<path d="M314.513 181.158C317.181 176.913 319.568 172.407 321.674 167.625C323.78 162.844 325.543 157.918 326.978 152.876C328.413 147.834 329.521 142.676 330.286 137.402C331.05 132.128 331.44 126.855 331.44 121.566C331.44 112.743 330.364 105.078 328.226 98.573C326.073 92.0822 323.062 87.0691 319.178 83.5339C317.774 82.2734 316.292 81.2158 314.685 80.3754C313.125 79.5496 306.869 76.1738 305.324 75.3479C302.422 73.7687 299.177 72.8849 295.605 72.6965C290.113 72.4067 284.029 74.0584 277.352 77.6371C270.659 81.2158 264.559 86.0839 259.068 92.2415C253.561 98.3992 248.849 105.339 244.933 113.062C241.017 120.784 237.991 129.042 235.854 137.837C233.701 146.632 232.64 155.47 232.64 164.351C232.64 173.232 233.701 180.926 235.854 187.431C237.991 193.922 241.017 198.95 244.933 202.499C246.337 203.789 247.866 204.846 249.473 205.687C251.018 206.498 257.196 209.831 258.724 210.656C261.657 212.25 264.934 213.134 268.569 213.308C274.06 213.554 280.16 211.888 286.853 208.309C289.692 206.788 292.391 205.049 294.95 203.093L298.819 207.223C299.396 207.759 299.989 208.193 300.597 208.512C301.689 209.106 309.458 213.25 310.051 213.583C311.159 214.192 312.313 214.452 313.53 214.365C315.402 214.235 317.524 213.54 319.88 212.265L336.276 203.485L314.513 181.158ZM299.88 144.791C298.772 150.239 297.196 155.209 295.121 159.686C293.062 164.177 290.535 168.104 287.555 171.465C284.559 174.841 281.158 177.55 277.352 179.593C273.81 181.505 270.628 182.447 267.804 182.462C266.291 180.332 265.09 177.55 264.2 174.102C263.093 169.828 262.547 164.641 262.547 158.512C262.547 152.427 263.093 146.675 264.2 141.213C265.292 135.765 266.884 130.796 268.943 126.319C271.002 121.842 273.545 117.886 276.556 114.481C279.567 111.062 282.999 108.324 286.853 106.252C290.316 104.397 293.436 103.47 296.229 103.47C297.758 105.614 298.975 108.425 299.88 111.902C300.972 116.177 301.533 121.349 301.533 127.42C301.533 133.548 300.972 139.329 299.88 144.791Z" fill="#E0E0E0"/>
<path opacity="0.1" d="M258.334 210.439C256.353 209.381 250.908 206.44 249.473 205.687C247.866 204.846 246.337 203.789 244.933 202.499C241.017 198.95 237.991 193.922 235.854 187.431C233.701 180.926 232.64 173.232 232.64 164.351C232.64 155.469 233.701 146.631 235.854 137.837C237.835 129.694 240.581 122.015 244.091 114.786L253.592 119.886C250.082 127.101 247.336 134.78 245.355 142.937C243.202 151.731 242.141 160.569 242.141 169.451C242.141 178.332 243.202 186.026 245.355 192.517C247.492 199.022 250.518 204.05 254.434 207.599C255.651 208.7 256.962 209.657 258.334 210.439Z" fill="black"/>
<path opacity="0.1" d="M304.622 107.179C302.563 104.919 300.035 103.688 297.056 103.485C296.791 103.47 296.51 103.485 296.229 103.485C297.758 105.629 298.975 108.44 299.879 111.903C300.972 116.177 301.533 121.349 301.533 127.42C301.533 133.548 300.972 139.329 299.879 144.792C298.772 150.239 297.196 155.209 295.121 159.686C293.062 164.177 290.535 168.104 287.555 171.465C284.559 174.841 281.158 177.55 277.352 179.593C273.81 181.505 270.628 182.447 267.804 182.462C268.147 182.983 268.537 183.461 268.943 183.911C271.002 186.185 273.545 187.402 276.556 187.547C279.567 187.707 282.999 186.765 286.853 184.693C290.659 182.65 294.06 179.941 297.056 176.565C300.035 173.189 302.563 169.263 304.622 164.786C306.697 160.309 308.273 155.339 309.38 149.877C310.472 144.429 311.034 138.634 311.034 132.505C311.034 126.435 310.472 121.262 309.38 116.988C308.273 112.714 306.697 109.44 304.622 107.179Z" fill="black"/>
<path opacity="0.1" d="M297.649 200.92C296.759 201.674 295.87 202.398 294.95 203.093L298.819 207.223C299.396 207.759 299.989 208.193 300.597 208.512C301.658 209.092 308.975 212.989 309.973 213.54C309.412 213.221 308.85 212.815 308.32 212.308L297.649 200.92Z" fill="black"/>
<path d="M336.276 203.484L319.88 212.279C317.524 213.539 315.402 214.235 313.546 214.365C311.674 214.496 309.942 213.815 308.32 212.308L297.649 200.905C294.31 203.76 290.706 206.223 286.853 208.295C280.16 211.873 274.076 213.539 268.569 213.293C263.062 213.047 258.35 211.134 254.45 207.585C250.534 204.035 247.508 199.007 245.37 192.502C243.233 186.011 242.156 178.318 242.156 169.436C242.156 160.555 243.233 151.717 245.37 142.922C247.508 134.128 250.534 125.869 254.45 118.147C258.366 110.424 263.077 103.484 268.569 97.3268C274.076 91.1692 280.176 86.3011 286.853 82.7079C293.53 79.1292 299.614 77.4775 305.106 77.7673C310.597 78.0571 315.278 79.9696 319.178 83.5048C323.062 87.04 326.089 92.053 328.226 98.5584C330.364 105.064 331.44 112.714 331.44 121.552C331.44 126.84 331.05 132.114 330.286 137.388C329.521 142.661 328.414 147.819 326.978 152.861C325.543 157.903 323.78 162.815 321.674 167.596C319.568 172.377 317.181 176.898 314.513 181.143L336.276 203.484ZM262.547 158.512C262.547 164.641 263.093 169.842 264.2 174.116C265.308 178.39 266.884 181.665 268.943 183.925C271.002 186.2 273.545 187.402 276.556 187.561C279.567 187.721 282.999 186.765 286.853 184.693C290.659 182.65 294.076 179.941 297.056 176.565C300.036 173.189 302.579 169.262 304.638 164.785C306.697 160.309 308.288 155.339 309.38 149.877C310.488 144.429 311.034 138.634 311.034 132.505C311.034 126.434 310.488 121.262 309.38 116.988C308.273 112.714 306.697 109.439 304.638 107.179C302.579 104.919 300.051 103.687 297.056 103.484C294.06 103.282 290.659 104.209 286.853 106.252C282.999 108.324 279.567 111.062 276.556 114.467C273.545 117.886 271.018 121.827 268.943 126.304C266.884 130.781 265.292 135.75 264.2 141.213C263.093 146.675 262.547 152.427 262.547 158.512Z" fill="#FAFAFA"/>
</svg>
