<svg width="40" height="36" viewBox="0 0 40 36" fill="none" xmlns="http://www.w3.org/2000/svg">
<path d="M38.0033 15.8597C37.8675 15.8597 37.7348 15.8724 37.6084 15.9008L30.4052 3.42469C30.7717 3.06137 30.9991 2.55904 30.9991 2.003C30.9991 0.897243 30.1019 0.00315931 28.9993 0.00315931C28.0136 0.00315931 27.1985 0.714004 27.031 1.65232H12.792C12.6278 0.710844 11.8095 0 10.8238 0C9.71803 0 8.82395 0.897243 8.82395 1.99984C8.82395 2.62538 9.11144 3.18458 9.56006 3.55106L2.42635 15.9071C2.2905 15.8787 2.14833 15.8597 1.99984 15.8597C0.897243 15.8597 0 16.757 0 17.8627C0 18.9685 0.897243 19.8626 1.99984 19.8626C2.14517 19.8626 2.28734 19.8468 2.42635 19.8152L9.52847 32.1175C9.09565 32.484 8.82395 33.0306 8.82395 33.6403C8.82395 34.7461 9.72119 35.6401 10.8238 35.6401C11.7811 35.6401 12.5804 34.9672 12.7762 34.0731H19.098C19.2623 34.4175 19.6098 34.6576 20.0174 34.6576C20.4249 34.6576 20.7724 34.4175 20.9367 34.0731H27.0437C27.2427 34.9704 28.0389 35.6401 28.9961 35.6401C30.1019 35.6401 30.996 34.7429 30.996 33.6403C30.996 33.1001 30.7811 32.6072 30.4305 32.2471L37.6052 19.8215C37.7316 19.8468 37.8643 19.8626 38.0002 19.8626C39.1059 19.8626 40 18.9653 40 17.8627C40.0032 16.757 39.1091 15.8597 38.0033 15.8597ZM29.2615 12.9026L36.2341 16.9276C36.1109 17.1614 36.0319 17.4236 36.0098 17.7016H29.2615V12.9026ZM36.0098 18.0238C36.0319 18.3019 36.1109 18.5609 36.2341 18.7979L29.846 22.4848C29.7006 22.3047 29.4953 22.1752 29.2615 22.1278V18.0238H36.0098ZM28.042 23.1261C28.042 23.2525 28.0673 23.3726 28.1115 23.4863L24.6205 25.5019L20.2986 18.0238H28.9361V22.1215C28.4338 22.1815 28.042 22.608 28.042 23.1261ZM11.1018 23.0092V18.8295C11.541 18.7789 11.898 18.4535 11.9833 18.0238H19.7362L15.6133 25.1702C15.5691 25.1607 15.5248 25.1512 15.4774 25.1512C15.3258 25.1512 15.1868 25.2113 15.0825 25.3061L11.1018 23.0092ZM15.8945 25.3282L20.0174 18.1881L24.3361 25.6662L20.0174 28.1589L16.0524 25.8684C16.0619 25.8273 16.0651 25.7863 16.0651 25.7452C16.0682 25.5841 16.0019 25.4356 15.8945 25.3282ZM19.6225 7.79401C19.7267 7.88879 19.8657 7.94882 20.0174 7.94882C20.169 7.94882 20.308 7.88879 20.4123 7.79401L23.5842 9.62641C23.5274 9.75278 23.4958 9.89179 23.4958 10.0403C23.4958 10.3657 23.6506 10.65 23.8875 10.8364L20.0174 17.5373L15.7018 10.0592L19.6225 7.79401ZM24.5162 11.0576C24.8543 11.0576 25.1512 10.8901 25.3376 10.6374L28.9361 12.7162V17.7016H20.2986L24.1719 10.9944C24.2793 11.0323 24.3962 11.0576 24.5162 11.0576ZM28.9361 3.99968V12.3403L25.483 10.3467C25.5146 10.2488 25.5367 10.1477 25.5367 10.0403C25.5367 9.72751 25.3945 9.45265 25.1734 9.26625L28.2884 3.87331C28.4875 3.94598 28.7055 3.99336 28.9361 3.99968ZM27.9915 3.72798L24.8953 9.09249C24.7784 9.0451 24.6521 9.01982 24.5162 9.01982C24.2193 9.01982 23.9507 9.14935 23.7643 9.35471L20.5861 7.51915C20.6018 7.4686 20.6113 7.41489 20.6113 7.35803C20.6113 7.3138 20.605 7.27273 20.5987 7.23481L27.4544 3.2762C27.6029 3.45628 27.7861 3.61109 27.9915 3.72798ZM12.7257 2.62223H27.0974C27.1416 2.75808 27.1985 2.88445 27.2711 3.0045L20.447 6.94416C20.3396 6.83358 20.188 6.76092 20.0205 6.76092C19.8531 6.76092 19.7014 6.83042 19.594 6.94416L12.6056 2.90972C12.653 2.8181 12.6941 2.72332 12.7257 2.62223ZM12.435 3.18774L19.4424 7.23165C19.4329 7.27273 19.4297 7.3138 19.4297 7.35487C19.4297 7.41174 19.4392 7.46544 19.455 7.51599L15.5406 9.7749L11.9864 3.62688C12.1602 3.50367 12.3087 3.35518 12.435 3.18774ZM11.1018 3.98073C11.3166 3.95229 11.522 3.88595 11.7084 3.79433L15.2563 9.93918L11.1018 12.3371V3.98073ZM15.4206 10.2204L19.7394 17.6984H11.9927C11.9359 17.2309 11.5694 16.8675 11.1018 16.8138V12.7131L15.4206 10.2204ZM9.98025 17.7016H3.99336C3.97125 17.4299 3.89543 17.174 3.77537 16.9434L10.7764 12.9026V16.8265C10.3531 16.9118 10.0308 17.2656 9.98025 17.7016ZM10.4447 3.96493C10.5521 3.98705 10.6627 3.99652 10.7764 3.99968V12.5267L3.60477 16.6685C3.51631 16.5485 3.41521 16.4379 3.30148 16.3431L10.4447 3.96493ZM10.7764 31.6436C10.65 31.6468 10.5237 31.6594 10.4036 31.6879L3.30148 19.3824C3.41521 19.2844 3.51631 19.177 3.60477 19.0569L10.7764 23.1988V31.6436ZM3.77853 18.7821C3.89859 18.5515 3.97441 18.2955 3.99652 18.0238H9.98973C10.0687 18.4219 10.3815 18.7347 10.7796 18.8168V22.8228L3.77853 18.7821ZM11.1018 31.6626V23.3852L14.9088 25.5841C14.893 25.6346 14.8835 25.6883 14.8835 25.7452C14.8835 25.9032 14.9467 26.0453 15.0446 26.1496L11.7431 31.8648C11.5473 31.7637 11.3324 31.6942 11.1018 31.6626ZM12.0212 32.0417L15.3258 26.317C15.3732 26.3297 15.4237 26.3391 15.4774 26.3391C15.6449 26.3391 15.7965 26.2696 15.904 26.1591L19.6983 28.3485L12.4793 32.5156C12.3529 32.3324 12.1981 32.1712 12.0212 32.0417ZM27.0721 33.1001H20.8799C20.6998 32.8126 20.3839 32.623 20.0205 32.623C19.6572 32.623 19.3413 32.8157 19.1612 33.1001H12.7478C12.7194 32.9958 12.6815 32.8916 12.6341 32.7936L20.0174 28.5317L27.2332 32.6988C27.1637 32.8252 27.1132 32.9611 27.0721 33.1001ZM27.4102 32.4271L20.3428 28.3453L24.4973 25.9474L27.9536 31.9343C27.745 32.0638 27.5618 32.2313 27.4102 32.4271ZM28.2474 31.789L24.7816 25.7863L28.2758 23.7706C28.4369 23.9697 28.6707 24.1024 28.9393 24.1371V31.6468C28.6928 31.6499 28.459 31.7005 28.2474 31.789ZM29.6059 31.7352C29.4953 31.7005 29.3784 31.6752 29.2615 31.6594V24.1276C29.7291 24.0329 30.0798 23.6221 30.0798 23.1293C30.0798 23.0029 30.0545 22.8797 30.0103 22.766L36.411 19.0696C36.5026 19.1928 36.6101 19.3034 36.727 19.4013L29.6059 31.7352ZM36.411 16.6559L29.2615 12.5267V3.98389C29.3658 3.97125 29.4669 3.94913 29.568 3.9207L36.727 16.3241C36.6069 16.4189 36.5026 16.5327 36.411 16.6559Z" fill="url(#paint0_linear_1_14)"/>
<defs>
<linearGradient id="paint0_linear_1_14" x1="20.002" y1="43.8645" x2="20.002" y2="1.56838" gradientUnits="userSpaceOnUse">
<stop stop-color="#480672"/>
<stop offset="0.4915" stop-color="#EA48A6"/>
<stop offset="0.5881" stop-color="#EB4CA4"/>
<stop offset="0.6827" stop-color="#ED589F"/>
<stop offset="0.7765" stop-color="#F06B95"/>
<stop offset="0.8699" stop-color="#F68788"/>
<stop offset="0.9621" stop-color="#FCAA78"/>
<stop offset="1" stop-color="#FFBB70"/>
</linearGradient>
</defs>
</svg>
