<svg width="452" height="1095" viewBox="0 0 452 1095" fill="none" xmlns="http://www.w3.org/2000/svg">
<path d="M432.342 1056.84C432.342 1032.03 412.229 1011.91 387.418 1011.91H66.4285C41.6165 1011.91 21.504 991.8 21.504 966.988V824.802C21.504 799.99 41.6165 779.877 66.4285 779.877H390.942C415.754 779.877 435.867 759.765 435.867 734.953V584.263C435.867 559.451 415.754 539.338 390.942 539.338H61.8689C37.057 539.338 16.9445 519.226 16.9445 494.414V361.599C16.9445 336.787 37.057 316.674 61.8689 316.674H394.467C419.279 316.674 439.391 296.562 439.391 271.75V130.598C439.391 105.787 419.279 85.674 394.467 85.674H63.9949C39.1829 85.674 19.0704 65.5615 19.0704 40.7495V38.7075" stroke="url(#paint0_linear_1_541)" stroke-width="5" stroke-miterlimit="10"/>
<path d="M19.8537 38.7075C30.2664 38.7075 38.7075 30.2664 38.7075 19.8537C38.7075 9.4411 30.2664 1 19.8537 1C9.4411 1 1 9.4411 1 19.8537C1 30.2664 9.4411 38.7075 19.8537 38.7075Z" stroke="#202B37" stroke-width="1.8517" stroke-miterlimit="10"/>
<path d="M19.8537 38.7075C30.2664 38.7075 38.7075 30.2664 38.7075 19.8537C38.7075 9.4411 30.2664 1 19.8537 1C9.4411 1 1 9.4411 1 19.8537C1 30.2664 9.4411 38.7075 19.8537 38.7075Z" stroke="url(#paint1_linear_1_541)" stroke-width="1.8517" stroke-miterlimit="10"/>
<path d="M30.7071 19.854C30.7071 25.8682 25.8398 30.7354 19.8257 30.7354C13.8115 30.7354 8.94421 25.8682 8.94421 19.854C8.94421 13.8398 13.8115 8.97253 19.8257 8.97253C25.8398 8.97253 30.7071 13.8398 30.7071 19.854Z" fill="#EC7252"/>
<path d="M432.146 1093.65C442.559 1093.65 451 1085.21 451 1074.8C451 1064.38 442.559 1055.94 432.146 1055.94C421.734 1055.94 413.292 1064.38 413.292 1074.8C413.292 1085.21 421.734 1093.65 432.146 1093.65Z" stroke="url(#paint2_linear_1_541)" stroke-width="1.8517" stroke-miterlimit="10"/>
<path d="M432.146 1085.96C438.31 1085.96 443.307 1080.96 443.307 1074.8C443.307 1068.63 438.31 1063.63 432.146 1063.63C425.982 1063.63 420.985 1068.63 420.985 1074.8C420.985 1080.96 425.982 1085.96 432.146 1085.96Z" fill="#EC7252"/>
<defs>
<linearGradient id="paint0_linear_1_541" x1="51.2682" y1="547.772" x2="439.391" y2="547.772" gradientUnits="userSpaceOnUse">
<stop stop-color="#EC844D"/>
<stop offset="0.604167" stop-color="#EB6655"/>
<stop offset="1" stop-color="#EB535A"/>
</linearGradient>
<linearGradient id="paint1_linear_1_541" x1="4.06373" y1="19.8537" x2="38.7075" y2="19.8537" gradientUnits="userSpaceOnUse">
<stop stop-color="#EC844D"/>
<stop offset="0.604167" stop-color="#EB6655"/>
<stop offset="1" stop-color="#EB535A"/>
</linearGradient>
<linearGradient id="paint2_linear_1_541" x1="416.356" y1="1074.8" x2="451" y2="1074.8" gradientUnits="userSpaceOnUse">
<stop stop-color="#EC844D"/>
<stop offset="0.604167" stop-color="#EB6655"/>
<stop offset="1" stop-color="#EB535A"/>
</linearGradient>
</defs>
</svg>
