<svg width="80" height="80" viewBox="0 0 80 80" fill="none" xmlns="http://www.w3.org/2000/svg">
<circle cx="40" cy="40" r="40" fill="#10205C"/>
<path d="M35.8367 31.021C32.6639 34.5826 30.4865 39.6995 30.2843 40.1817L26.7693 38.673C25.7584 38.2376 25.5095 36.9156 26.2872 36.1379L30.9686 31.4564C31.6996 30.7255 32.7572 30.3988 33.7837 30.601L35.8367 31.021ZM38.1541 46.8228C38.6207 47.2894 39.3051 47.4138 39.8961 47.1339C41.7002 46.294 45.5729 44.3188 48.077 41.8148C55.2158 34.6759 55.278 28.8591 54.8581 26.3706C54.803 26.0649 54.6558 25.7834 54.4362 25.5638C54.2166 25.3442 53.9351 25.197 53.6294 25.1419C51.1409 24.722 45.3241 24.7842 38.1852 31.923C35.6812 34.4271 33.7215 38.2998 32.8661 40.1039C32.5862 40.6949 32.7261 41.3948 33.1772 41.8459L38.1541 46.8228ZM48.9946 44.1788C45.433 47.3516 40.316 49.5291 39.8339 49.7312L41.3425 53.2462C41.778 54.2572 43.1 54.506 43.8776 53.7284L48.5591 49.0469C49.2901 48.3159 49.6167 47.2583 49.4145 46.2318L48.9946 44.1788ZM35.4479 48.2226C35.5987 48.9759 35.5612 49.7547 35.3387 50.49C35.1163 51.2252 34.7157 51.8942 34.1726 52.4375C32.975 53.6351 29.2578 54.5216 26.8471 54.9882C25.7739 55.1904 24.8252 54.2416 25.0274 53.1685C25.494 50.7578 26.3649 47.0406 27.5781 45.843C28.1213 45.2999 28.7903 44.8993 29.5256 44.6768C30.2609 44.4543 31.0397 44.4168 31.7929 44.5676C33.6127 44.9098 35.1057 46.4029 35.4479 48.2226ZM41.7624 35.1425C41.7624 33.4317 43.1622 32.0319 44.873 32.0319C46.5839 32.0319 47.9836 33.4317 47.9836 35.1425C47.9836 36.8533 46.5839 38.2531 44.873 38.2531C43.1622 38.2531 41.7624 36.8533 41.7624 35.1425Z" fill="white"/>
</svg>
